<?xml version="1.0" encoding="utf-8"?>
<!-- Generator: Adobe Illustrator 16.0.0, SVG Export Plug-In . SVG Version: 6.00 Build 0)  -->
<!DOCTYPE svg PUBLIC "-//W3C//DTD SVG 1.0//EN" "http://www.w3.org/TR/2001/REC-SVG-20010904/DTD/svg10.dtd">
<svg version="1.0" id="Слой_1" xmlns="http://www.w3.org/2000/svg" xmlns:xlink="http://www.w3.org/1999/xlink" x="0px" y="0px"
	 width="66.999px" height="67.001px" viewBox="0 0 66.999 67.001" enable-background="new 0 0 66.999 67.001" xml:space="preserve">
<circle fill="#E65D17" cx="33.5" cy="33.5" r="33.5"/>
<path fill="#FFFFFF" d="M16.255,42.222h-2.089V28.375l-4.189,1.539v-1.887l5.952-2.235h0.326V42.222z M24.443,33.035h1.482
	c0.539,0,1.011-0.071,1.415-0.213s0.741-0.339,1.011-0.589c0.27-0.251,0.472-0.547,0.606-0.888c0.135-0.34,0.202-0.713,0.202-1.117
	c0-0.936-0.235-1.649-0.708-2.14c-0.472-0.49-1.19-0.735-2.156-0.735c-0.442,0-0.844,0.065-1.208,0.196
	c-0.363,0.131-0.674,0.318-0.932,0.562c-0.259,0.244-0.459,0.539-0.601,0.888c-0.142,0.348-0.213,0.735-0.213,1.162h-2.078
	c0-0.629,0.12-1.217,0.359-1.763s0.58-1.024,1.022-1.432c0.442-0.408,0.972-0.729,1.589-0.966c0.618-0.235,1.305-0.354,2.061-0.354
	c0.741,0,1.415,0.099,2.021,0.298c0.607,0.198,1.125,0.49,1.556,0.876c0.431,0.385,0.766,0.866,1.005,1.443
	c0.24,0.577,0.359,1.247,0.359,2.01c0,0.307-0.05,0.629-0.151,0.966c-0.101,0.337-0.254,0.667-0.46,0.988s-0.472,0.623-0.798,0.904
	c-0.325,0.28-0.713,0.515-1.162,0.702c0.539,0.172,0.99,0.399,1.354,0.679c0.363,0.281,0.653,0.594,0.87,0.938
	s0.371,0.708,0.461,1.089s0.135,0.756,0.135,1.123c0,0.764-0.132,1.443-0.394,2.039s-0.625,1.095-1.089,1.499
	c-0.465,0.404-1.012,0.714-1.641,0.927c-0.628,0.213-1.313,0.32-2.055,0.32c-0.711,0-1.381-0.1-2.01-0.299
	c-0.629-0.197-1.179-0.49-1.651-0.875c-0.472-0.386-0.844-0.861-1.117-1.426c-0.273-0.566-0.41-1.212-0.41-1.938h2.089
	c0,0.427,0.071,0.815,0.213,1.163s0.348,0.647,0.618,0.898c0.27,0.25,0.595,0.443,0.977,0.578s0.813,0.202,1.292,0.202
	s0.909-0.062,1.292-0.185c0.381-0.125,0.707-0.313,0.977-0.568c0.27-0.254,0.476-0.572,0.618-0.954
	c0.142-0.382,0.213-0.827,0.213-1.336s-0.082-0.951-0.247-1.325s-0.398-0.683-0.702-0.927c-0.303-0.243-0.668-0.425-1.095-0.544
	s-0.906-0.18-1.438-0.18h-1.482V33.035z M44.591,35.248c0,1.34-0.12,2.469-0.359,3.387c-0.239,0.916-0.582,1.658-1.027,2.223
	c-0.445,0.565-0.984,0.972-1.617,1.219s-1.346,0.371-2.14,0.371c-0.786,0-1.497-0.124-2.134-0.371s-1.179-0.653-1.628-1.219
	c-0.449-0.564-0.798-1.307-1.045-2.223c-0.247-0.918-0.371-2.046-0.371-3.387v-2.493c0-1.34,0.122-2.463,0.365-3.369
	s0.59-1.636,1.039-2.19s0.99-0.951,1.623-1.19s1.342-0.359,2.128-0.359c0.794,0,1.509,0.12,2.146,0.359
	c0.636,0.24,1.179,0.636,1.628,1.19s0.794,1.284,1.033,2.19s0.359,2.029,0.359,3.369V35.248z M42.514,32.406
	c0-0.921-0.066-1.703-0.197-2.347s-0.327-1.166-0.59-1.567c-0.262-0.4-0.585-0.69-0.971-0.87s-0.829-0.27-1.331-0.27
	c-0.494,0-0.934,0.09-1.319,0.27s-0.708,0.47-0.966,0.87c-0.259,0.401-0.455,0.923-0.59,1.567s-0.202,1.426-0.202,2.347v3.167
	c0,0.914,0.067,1.698,0.202,2.353c0.135,0.656,0.335,1.193,0.601,1.612s0.592,0.726,0.978,0.921s0.825,0.292,1.319,0.292
	c0.509,0,0.955-0.097,1.336-0.292c0.383-0.195,0.702-0.502,0.961-0.921c0.258-0.419,0.451-0.956,0.578-1.612
	c0.127-0.655,0.191-1.439,0.191-2.353V32.406z M53.418,33.451h4.56v1.965h-4.56v5.166h-2.089v-5.166h-4.56v-1.965h4.56v-4.773h2.089
	V33.451z"/>
</svg>
