<?xml version="1.0" encoding="utf-8"?>
<!-- Generator: Adobe Illustrator 16.0.0, SVG Export Plug-In . SVG Version: 6.00 Build 0)  -->
<!DOCTYPE svg PUBLIC "-//W3C//DTD SVG 1.0//EN" "http://www.w3.org/TR/2001/REC-SVG-20010904/DTD/svg10.dtd">
<svg version="1.0" id="Слой_1" xmlns="http://www.w3.org/2000/svg" xmlns:xlink="http://www.w3.org/1999/xlink" x="0px" y="0px"
	 width="66.999px" height="67.001px" viewBox="0 0 66.999 67.001" enable-background="new 0 0 66.999 67.001" xml:space="preserve">
<circle fill="#E65D17" cx="33.5" cy="33.5" r="33.5"/>
<path fill="#FFFFFF" d="M16.255,42.222h-2.089V28.375l-4.189,1.539v-1.887l5.952-2.235h0.326V42.222z M22.377,34.023l0.831-8.153
	h8.378v1.92h-6.615l-0.494,4.458c0.292-0.172,0.668-0.333,1.128-0.483c0.461-0.15,0.994-0.225,1.601-0.225
	c0.749,0,1.425,0.129,2.027,0.387c0.603,0.259,1.113,0.625,1.533,1.101c0.419,0.476,0.74,1.05,0.965,1.724s0.338,1.426,0.338,2.257
	c0,0.786-0.107,1.51-0.32,2.172c-0.214,0.664-0.533,1.236-0.961,1.719c-0.426,0.482-0.964,0.861-1.611,1.135s-1.409,0.41-2.285,0.41
	c-0.659,0-1.282-0.092-1.87-0.275c-0.587-0.184-1.11-0.463-1.566-0.837s-0.831-0.847-1.123-1.415s-0.472-1.235-0.539-1.999h1.965
	c0.127,0.937,0.46,1.642,1,2.116c0.539,0.477,1.25,0.714,2.134,0.714c0.494,0,0.933-0.086,1.314-0.259
	c0.381-0.172,0.705-0.419,0.971-0.74c0.266-0.322,0.468-0.713,0.606-1.174c0.139-0.46,0.208-0.976,0.208-1.544
	c0-0.509-0.071-0.984-0.213-1.426c-0.143-0.442-0.353-0.826-0.629-1.151c-0.277-0.326-0.62-0.583-1.028-0.77
	s-0.874-0.281-1.398-0.281c-0.352,0-0.655,0.024-0.91,0.073c-0.254,0.049-0.483,0.118-0.685,0.208s-0.387,0.2-0.556,0.331
	c-0.168,0.131-0.346,0.275-0.533,0.433L22.377,34.023z M44.591,35.248c0,1.34-0.12,2.469-0.359,3.387
	c-0.239,0.916-0.582,1.658-1.027,2.223c-0.445,0.565-0.984,0.972-1.617,1.219s-1.346,0.371-2.14,0.371
	c-0.786,0-1.497-0.124-2.134-0.371s-1.179-0.653-1.628-1.219c-0.449-0.564-0.798-1.307-1.045-2.223
	c-0.247-0.918-0.371-2.046-0.371-3.387v-2.493c0-1.34,0.122-2.463,0.365-3.369s0.59-1.636,1.039-2.19s0.99-0.951,1.623-1.19
	s1.342-0.359,2.128-0.359c0.794,0,1.509,0.12,2.146,0.359c0.636,0.24,1.179,0.636,1.628,1.19s0.794,1.284,1.033,2.19
	s0.359,2.029,0.359,3.369V35.248z M42.514,32.406c0-0.921-0.066-1.703-0.197-2.347s-0.327-1.166-0.59-1.567
	c-0.262-0.4-0.585-0.69-0.971-0.87s-0.829-0.27-1.331-0.27c-0.494,0-0.934,0.09-1.319,0.27s-0.708,0.47-0.966,0.87
	c-0.259,0.401-0.455,0.923-0.59,1.567s-0.202,1.426-0.202,2.347v3.167c0,0.914,0.067,1.698,0.202,2.353
	c0.135,0.656,0.335,1.193,0.601,1.612s0.592,0.726,0.978,0.921s0.825,0.292,1.319,0.292c0.509,0,0.955-0.097,1.336-0.292
	c0.383-0.195,0.702-0.502,0.961-0.921c0.258-0.419,0.451-0.956,0.578-1.612c0.127-0.655,0.191-1.439,0.191-2.353V32.406z
	 M53.418,33.451h4.56v1.965h-4.56v5.166h-2.089v-5.166h-4.56v-1.965h4.56v-4.773h2.089V33.451z"/>
</svg>
