<?xml version="1.0" encoding="utf-8"?>
<!-- Generator: Adobe Illustrator 16.0.0, SVG Export Plug-In . SVG Version: 6.00 Build 0)  -->
<!DOCTYPE svg PUBLIC "-//W3C//DTD SVG 1.0//EN" "http://www.w3.org/TR/2001/REC-SVG-20010904/DTD/svg10.dtd">
<svg version="1.0" id="Слой_1" xmlns="http://www.w3.org/2000/svg" xmlns:xlink="http://www.w3.org/1999/xlink" x="0px" y="0px"
	 width="66.999px" height="67.001px" viewBox="0 0 66.999 67.001" enable-background="new 0 0 66.999 67.001" xml:space="preserve">
<circle fill="#E65D17" cx="33.5" cy="33.5" r="33.5"/>
<path fill="#FFFFFF" d="M16.255,42.222h-2.089V28.375l-4.189,1.539v-1.887l5.952-2.235h0.326V42.222z M31.339,30.138
	c0,0.816-0.215,1.542-0.646,2.179s-1.013,1.134-1.747,1.494c0.42,0.18,0.8,0.404,1.141,0.674s0.633,0.575,0.876,0.916
	c0.243,0.34,0.431,0.713,0.562,1.117s0.196,0.835,0.196,1.292c0,0.748-0.133,1.411-0.398,1.988
	c-0.266,0.576-0.633,1.061-1.101,1.453c-0.468,0.395-1.019,0.691-1.651,0.894s-1.315,0.304-2.049,0.304s-1.419-0.102-2.055-0.304
	s-1.187-0.499-1.651-0.894c-0.464-0.393-0.829-0.877-1.095-1.453c-0.266-0.577-0.398-1.24-0.398-1.988
	c0-0.457,0.063-0.887,0.191-1.292s0.309-0.779,0.544-1.123c0.236-0.344,0.522-0.651,0.859-0.921s0.715-0.494,1.134-0.674
	c-0.726-0.359-1.299-0.857-1.718-1.494s-0.629-1.359-0.629-2.167c0-0.711,0.12-1.346,0.359-1.903c0.24-0.558,0.573-1.028,1-1.41
	s0.936-0.674,1.527-0.876s1.235-0.303,1.932-0.303c0.696,0,1.338,0.101,1.926,0.303s1.097,0.494,1.527,0.876s0.766,0.852,1.005,1.41
	C31.219,28.792,31.339,29.426,31.339,30.138z M29.644,37.763c0-0.457-0.077-0.876-0.23-1.258s-0.369-0.709-0.646-0.983
	c-0.276-0.273-0.607-0.484-0.993-0.634s-0.811-0.225-1.275-0.225c-0.472,0-0.898,0.075-1.28,0.225s-0.708,0.361-0.977,0.634
	c-0.27,0.273-0.478,0.601-0.623,0.983c-0.146,0.382-0.219,0.801-0.219,1.258c0,0.472,0.071,0.891,0.213,1.258
	s0.348,0.68,0.618,0.938s0.597,0.455,0.983,0.59c0.385,0.135,0.821,0.202,1.308,0.202c0.479,0,0.912-0.067,1.297-0.202
	s0.713-0.332,0.982-0.59s0.478-0.57,0.623-0.938C29.57,38.654,29.644,38.235,29.644,37.763z M29.261,30.171
	c0-0.404-0.065-0.779-0.196-1.123s-0.318-0.642-0.562-0.893c-0.243-0.25-0.533-0.447-0.87-0.589s-0.708-0.213-1.112-0.213
	s-0.775,0.065-1.112,0.196c-0.337,0.131-0.627,0.318-0.87,0.562c-0.244,0.244-0.431,0.539-0.562,0.888
	c-0.131,0.348-0.197,0.739-0.197,1.173c0,0.419,0.065,0.801,0.197,1.146c0.131,0.344,0.316,0.638,0.556,0.881
	c0.24,0.244,0.528,0.431,0.865,0.562c0.337,0.131,0.711,0.197,1.123,0.197s0.786-0.065,1.124-0.197
	c0.336-0.131,0.625-0.318,0.864-0.562c0.239-0.243,0.425-0.537,0.556-0.881S29.261,30.591,29.261,30.171z M44.591,35.248
	c0,1.34-0.12,2.469-0.359,3.387c-0.239,0.916-0.582,1.658-1.027,2.223c-0.445,0.565-0.984,0.972-1.617,1.219
	s-1.346,0.371-2.14,0.371c-0.786,0-1.497-0.124-2.134-0.371s-1.179-0.653-1.628-1.219c-0.449-0.564-0.798-1.307-1.045-2.223
	c-0.247-0.918-0.371-2.046-0.371-3.387v-2.493c0-1.34,0.122-2.463,0.365-3.369s0.59-1.636,1.039-2.19s0.99-0.951,1.623-1.19
	s1.342-0.359,2.128-0.359c0.794,0,1.509,0.12,2.146,0.359c0.636,0.24,1.179,0.636,1.628,1.19s0.794,1.284,1.033,2.19
	s0.359,2.029,0.359,3.369V35.248z M42.514,32.406c0-0.921-0.066-1.703-0.197-2.347s-0.327-1.166-0.59-1.567
	c-0.262-0.4-0.585-0.69-0.971-0.87s-0.829-0.27-1.331-0.27c-0.494,0-0.934,0.09-1.319,0.27s-0.708,0.47-0.966,0.87
	c-0.259,0.401-0.455,0.923-0.59,1.567s-0.202,1.426-0.202,2.347v3.167c0,0.914,0.067,1.698,0.202,2.353
	c0.135,0.656,0.335,1.193,0.601,1.612s0.592,0.726,0.978,0.921s0.825,0.292,1.319,0.292c0.509,0,0.955-0.097,1.336-0.292
	c0.383-0.195,0.702-0.502,0.961-0.921c0.258-0.419,0.451-0.956,0.578-1.612c0.127-0.655,0.191-1.439,0.191-2.353V32.406z
	 M53.418,33.451h4.56v1.965h-4.56v5.166h-2.089v-5.166h-4.56v-1.965h4.56v-4.773h2.089V33.451z"/>
</svg>
