<?xml version="1.0" encoding="utf-8"?>
<!-- Generator: Adobe Illustrator 16.0.0, SVG Export Plug-In . SVG Version: 6.00 Build 0)  -->
<!DOCTYPE svg PUBLIC "-//W3C//DTD SVG 1.0//EN" "http://www.w3.org/TR/2001/REC-SVG-20010904/DTD/svg10.dtd">
<svg version="1.0" id="Слой_1" xmlns="http://www.w3.org/2000/svg" xmlns:xlink="http://www.w3.org/1999/xlink" x="0px" y="0px"
	 width="66.999px" height="67.001px" viewBox="0 0 66.999 67.001" enable-background="new 0 0 66.999 67.001" xml:space="preserve">
<circle fill="#E65D17" cx="33.5" cy="33.5" r="33.5"/>
<path fill="#FFFFFF" d="M25.98,27.038l-6.772,15.184h-2.179l6.75-14.645h-8.85V25.87H25.98V27.038z M38.592,35.248
	c0,1.34-0.12,2.469-0.359,3.387c-0.239,0.916-0.582,1.658-1.027,2.223c-0.445,0.565-0.984,0.972-1.617,1.219
	s-1.346,0.371-2.14,0.371c-0.786,0-1.498-0.124-2.134-0.371s-1.179-0.653-1.628-1.219c-0.449-0.564-0.797-1.307-1.044-2.223
	c-0.247-0.918-0.371-2.046-0.371-3.387v-2.493c0-1.34,0.122-2.463,0.365-3.369c0.244-0.906,0.59-1.636,1.039-2.19
	s0.99-0.951,1.623-1.19c0.632-0.24,1.342-0.359,2.128-0.359c0.794,0,1.509,0.12,2.146,0.359c0.636,0.24,1.179,0.636,1.628,1.19
	s0.794,1.284,1.033,2.19s0.359,2.029,0.359,3.369V35.248z M36.515,32.406c0-0.921-0.066-1.703-0.197-2.347s-0.327-1.166-0.59-1.567
	c-0.262-0.4-0.585-0.69-0.971-0.87s-0.829-0.27-1.331-0.27c-0.494,0-0.934,0.09-1.319,0.27c-0.386,0.18-0.708,0.47-0.966,0.87
	c-0.259,0.401-0.455,0.923-0.59,1.567s-0.202,1.426-0.202,2.347v3.167c0,0.914,0.067,1.698,0.202,2.353
	c0.135,0.656,0.335,1.193,0.601,1.612c0.266,0.419,0.592,0.726,0.978,0.921c0.385,0.195,0.825,0.292,1.319,0.292
	c0.509,0,0.955-0.097,1.336-0.292c0.383-0.195,0.702-0.502,0.961-0.921c0.258-0.419,0.451-0.956,0.578-1.612
	c0.127-0.655,0.191-1.439,0.191-2.353V32.406z M47.419,33.451h4.56v1.965h-4.56v5.166H45.33v-5.166h-4.56v-1.965h4.56v-4.773h2.089
	V33.451z"/>
</svg>
