<?xml version="1.0" encoding="utf-8"?>
<!-- Generator: Adobe Illustrator 16.0.0, SVG Export Plug-In . SVG Version: 6.00 Build 0)  -->
<!DOCTYPE svg PUBLIC "-//W3C//DTD SVG 1.0//EN" "http://www.w3.org/TR/2001/REC-SVG-20010904/DTD/svg10.dtd">
<svg version="1.0" id="Слой_1" xmlns="http://www.w3.org/2000/svg" xmlns:xlink="http://www.w3.org/1999/xlink" x="0px" y="0px"
	 width="66.999px" height="67.001px" viewBox="0 0 66.999 67.001" enable-background="new 0 0 66.999 67.001" xml:space="preserve">
<circle fill="#E65D17" cx="33.5" cy="33.5" r="33.5"/>
<path fill="none" stroke="#FFFFFF" stroke-width="2" stroke-linecap="round" stroke-linejoin="round" stroke-miterlimit="10" d="
	M25.021,51.458v-2.524c0,0,3.751-0.852,6.753-3.553l-0.075-5.628c-13.281-5.458-11.255-22.209-11.255-22.209H33.5h13.056
	c0,0,2.026,16.751-11.255,22.209l-0.075,5.628c3.001,2.701,6.753,3.553,6.753,3.553v2.524H33.5H25.021z M20.333,21.22h-4.917
	c0,0,0.393,5.152,1.201,7.049c1.726,4.052,7.071,4.739,7.071,4.739 M43.311,33.007c0,0,5.344-0.687,7.072-4.739
	c0.808-1.896,1.2-7.049,1.2-7.049h-4.916"/>
</svg>
