<?xml version="1.0" encoding="utf-8"?>
<!-- Generator: Adobe Illustrator 16.0.0, SVG Export Plug-In . SVG Version: 6.00 Build 0)  -->
<!DOCTYPE svg PUBLIC "-//W3C//DTD SVG 1.0//EN" "http://www.w3.org/TR/2001/REC-SVG-20010904/DTD/svg10.dtd">
<svg version="1.0" id="Слой_1" xmlns="http://www.w3.org/2000/svg" xmlns:xlink="http://www.w3.org/1999/xlink" x="0px" y="0px"
	 width="66.999px" height="67px" viewBox="0 0 66.999 67" enable-background="new 0 0 66.999 67" xml:space="preserve">
<circle fill="#E65D17" cx="33.5" cy="33.5" r="33.5"/>
<g>
	<line fill="none" stroke="#FFFFFF" stroke-width="2" stroke-miterlimit="10" x1="38.083" y1="47.476" x2="28.916" y2="47.476"/>
	<path fill="none" stroke="#FFFFFF" stroke-width="2" stroke-miterlimit="10" d="M21.083,47.476h-0.542
		c-3.199,0-5.792-2.593-5.792-5.791l0,0c0-3.198,2.593-5.792,5.792-5.792h25.918c3.198,0,5.791,2.594,5.791,5.792l0,0
		c0,3.198-2.593,5.791-5.791,5.791h-0.543"/>
	<circle fill="none" stroke="#FFFFFF" stroke-width="2" stroke-miterlimit="10" cx="25" cy="47.642" r="3.917"/>
	<circle fill="none" stroke="#FFFFFF" stroke-width="2" stroke-miterlimit="10" cx="42" cy="47.642" r="3.917"/>
	<path fill="none" stroke="#FFFFFF" stroke-width="2" stroke-linecap="round" stroke-linejoin="round" stroke-miterlimit="10" d="
		M33.5,35.893v-8.501h-4.333c0,0-2.708,0-5.042,3.708c-0.851,1.353-1.958,4.792-1.958,4.792"/>
	<path fill="none" stroke="#FFFFFF" stroke-width="2" stroke-linecap="round" stroke-linejoin="round" stroke-miterlimit="10" d="
		M33.5,27.392h4.333c0,0,2.708,0,5.042,3.708c0.851,1.353,1.958,4.792,1.958,4.792"/>
	<path fill="none" stroke="#FFFFFF" stroke-width="2" stroke-linecap="round" stroke-linejoin="round" stroke-miterlimit="10" d="
		M31.389,23.304c-0.674,0.321-1.429,0.501-2.225,0.501c-2.862,0-5.182-2.32-5.182-5.182s2.32-5.182,5.182-5.182
		c1.783,0,3.356,0.9,4.288,2.271"/>
	
		<circle fill="none" stroke="#FFFFFF" stroke-width="2" stroke-linecap="round" stroke-linejoin="round" stroke-miterlimit="10" cx="29.164" cy="18.624" r="1.81"/>
	
		<line fill="none" stroke="#FFFFFF" stroke-width="2" stroke-linecap="round" stroke-linejoin="round" stroke-miterlimit="10" x1="31.389" y1="23.304" x2="31.389" y2="27.392"/>
	<path fill="none" stroke="#FFFFFF" stroke-width="2" stroke-linecap="round" stroke-linejoin="round" stroke-miterlimit="10" d="
		M35.515,23.304c0.674,0.321,1.429,0.501,2.225,0.501c2.862,0,5.182-2.32,5.182-5.182s-2.32-5.182-5.182-5.182
		c-1.783,0-3.356,0.9-4.288,2.271"/>
	
		<circle fill="none" stroke="#FFFFFF" stroke-width="2" stroke-linecap="round" stroke-linejoin="round" stroke-miterlimit="10" cx="37.74" cy="18.624" r="1.81"/>
	
		<line fill="none" stroke="#FFFFFF" stroke-width="2" stroke-linecap="round" stroke-linejoin="round" stroke-miterlimit="10" x1="35.515" y1="23.304" x2="35.515" y2="27.392"/>
</g>
</svg>
