<?xml version="1.0" encoding="utf-8"?>
<!-- Generator: Adobe Illustrator 16.0.0, SVG Export Plug-In . SVG Version: 6.00 Build 0)  -->
<!DOCTYPE svg PUBLIC "-//W3C//DTD SVG 1.0//EN" "http://www.w3.org/TR/2001/REC-SVG-20010904/DTD/svg10.dtd">
<svg version="1.0" id="Слой_1" xmlns="http://www.w3.org/2000/svg" xmlns:xlink="http://www.w3.org/1999/xlink" x="0px" y="0px"
	 width="66.999px" height="67.001px" viewBox="0 0 66.999 67.001" enable-background="new 0 0 66.999 67.001" xml:space="preserve">
<circle fill="#E65D17" cx="33.5" cy="33.5" r="33.5"/>
<path fill="none" stroke="#FFFFFF" stroke-width="2" stroke-linecap="round" stroke-linejoin="round" stroke-miterlimit="10" d="
	M51.626,44.201H15.374v-22.96h36.252V44.201z M24.739,49.76h17.521 M30.945,27.805v10.309 M22.858,38.114V27.805 M39.338,38.114
	c0.623,0,1.174-0.058,1.654-0.175c0.481-0.117,0.892-0.29,1.232-0.517c0.339-0.227,0.653-0.539,0.94-0.936
	c0.286-0.396,0.52-0.896,0.703-1.501c0.183-0.604,0.275-1.299,0.275-2.082c0-0.918-0.136-1.736-0.406-2.45
	c-0.27-0.715-0.676-1.302-1.219-1.762c-0.417-0.356-0.921-0.603-1.512-0.739c-0.422-0.099-1.034-0.147-1.835-0.147h-3.552v10.309
	H39.338z M22.858,32.529h8.087"/>
</svg>
