<?xml version="1.0" encoding="utf-8"?>
<!-- Generator: Adobe Illustrator 16.0.0, SVG Export Plug-In . SVG Version: 6.00 Build 0)  -->
<!DOCTYPE svg PUBLIC "-//W3C//DTD SVG 1.0//EN" "http://www.w3.org/TR/2001/REC-SVG-20010904/DTD/svg10.dtd">
<svg version="1.0" id="Слой_1" xmlns="http://www.w3.org/2000/svg" xmlns:xlink="http://www.w3.org/1999/xlink" x="0px" y="0px"
	 width="66.999px" height="67.001px" viewBox="0 0 66.999 67.001" enable-background="new 0 0 66.999 67.001" xml:space="preserve">
<circle fill="#E65D17" cx="33.5" cy="33.5" r="33.5"/>
<path fill="none" stroke="#FFFFFF" stroke-width="2" stroke-linecap="round" stroke-linejoin="round" stroke-miterlimit="10" d="
	M33.473,26.456l7.092,5.153l-2.71,8.338h-8.766l-2.709-8.338L33.473,26.456z M40.754,16.098l-7.282,3.427v6.93l7.092,5.153
	l6.562-3.417l0.351-6.854 M19.467,21.37l0.351,6.854l6.562,3.418l7.093-5.154v-6.93l-7.283-3.427 M17.541,43.105l8.056,1.429
	l3.492-4.587l-2.709-8.338l-6.509-3.335l-4.923,6.085 M51.947,34.858l-4.851-6.599l-6.509,3.336l-2.709,8.337l3.493,4.589
	l8.176-1.355 M29.851,51.721l-4.254-7.188 M37.175,51.785l4.276-7.182 M33.5,14.684c-10.392,0-18.817,8.425-18.817,18.817
	c0,10.391,8.425,18.815,18.817,18.815s18.817-8.425,18.817-18.815C52.316,23.109,43.892,14.684,33.5,14.684z"/>
</svg>
