<?xml version="1.0" encoding="utf-8"?>
<!-- Generator: Adobe Illustrator 16.0.0, SVG Export Plug-In . SVG Version: 6.00 Build 0)  -->
<!DOCTYPE svg PUBLIC "-//W3C//DTD SVG 1.0//EN" "http://www.w3.org/TR/2001/REC-SVG-20010904/DTD/svg10.dtd">
<svg version="1.0" id="Слой_1" xmlns="http://www.w3.org/2000/svg" xmlns:xlink="http://www.w3.org/1999/xlink" x="0px" y="0px"
	 width="67px" height="67.001px" viewBox="0 0 67 67.001" enable-background="new 0 0 67 67.001" xml:space="preserve">
<circle fill="#E65D17" cx="33.853" cy="33.585" r="33.5"/>
<g>
	<path fill="none" stroke="#FFFFFF" stroke-width="2" stroke-linecap="round" stroke-miterlimit="10" d="M55.165,50.633H32.933
		c-9.641,0-17.456-7.815-17.456-17.456s7.815-17.456,17.456-17.456s17.456,7.815,17.456,17.456c0,5.423-2.473,10.268-6.353,13.469"
		/>
	
		<circle fill="none" stroke="#FFFFFF" stroke-width="2" stroke-linecap="round" stroke-miterlimit="10" cx="24.479" cy="33.241" r="4.356"/>
	
		<circle fill="none" stroke="#FFFFFF" stroke-width="2" stroke-linecap="round" stroke-miterlimit="10" cx="42.032" cy="33.241" r="4.356"/>
	
		<circle fill="none" stroke="#FFFFFF" stroke-width="2" stroke-linecap="round" stroke-miterlimit="10" cx="33.256" cy="24.465" r="4.356"/>
	
		<circle fill="none" stroke="#FFFFFF" stroke-width="2" stroke-linecap="round" stroke-miterlimit="10" cx="33.256" cy="42.018" r="4.356"/>
	<path fill="none" stroke="#FFFFFF" stroke-width="2" stroke-linecap="round" stroke-miterlimit="10" d="M33.973,33.241
		c0,0.399-0.318,0.717-0.717,0.717s-0.717-0.318-0.717-0.717s0.318-0.717,0.717-0.717S33.973,32.842,33.973,33.241z"/>
</g>
</svg>
