<?xml version="1.0" encoding="utf-8"?>
<!-- Generator: Adobe Illustrator 16.0.0, SVG Export Plug-In . SVG Version: 6.00 Build 0)  -->
<!DOCTYPE svg PUBLIC "-//W3C//DTD SVG 1.0//EN" "http://www.w3.org/TR/2001/REC-SVG-20010904/DTD/svg10.dtd">
<svg version="1.0" id="Слой_1" xmlns="http://www.w3.org/2000/svg" xmlns:xlink="http://www.w3.org/1999/xlink" x="0px" y="0px"
	 width="66.999px" height="67.001px" viewBox="0 0 66.999 67.001" enable-background="new 0 0 66.999 67.001" xml:space="preserve">
<circle fill="#E65D17" cx="33.5" cy="33.5" r="33.5"/>
<g>
	<g>
		
			<polygon fill="none" stroke="#FFFFFF" stroke-width="2" stroke-linecap="round" stroke-linejoin="round" stroke-miterlimit="10" points="
			31.056,27.017 37.583,31.759 35.088,39.434 27.022,39.434 24.528,31.759 		"/>
		
			<polyline fill="none" stroke="#FFFFFF" stroke-width="2" stroke-linecap="round" stroke-linejoin="round" stroke-miterlimit="10" points="
			43.944,22.306 43.622,28.614 37.583,31.759 31.056,27.017 31.056,20.639 37.757,17.485 		"/>
		
			<polyline fill="none" stroke="#FFFFFF" stroke-width="2" stroke-linecap="round" stroke-linejoin="round" stroke-miterlimit="10" points="
			18.167,22.336 18.489,28.645 24.528,31.79 31.056,27.046 31.056,20.669 24.353,17.515 		"/>
		
			<polyline fill="none" stroke="#FFFFFF" stroke-width="2" stroke-linecap="round" stroke-linejoin="round" stroke-miterlimit="10" points="
			14.007,34.29 18.538,28.689 24.528,31.759 27.022,39.434 23.808,43.654 16.394,42.34 		"/>
		
			<polyline fill="none" stroke="#FFFFFF" stroke-width="2" stroke-linecap="round" stroke-linejoin="round" stroke-miterlimit="10" points="
			48.058,34.75 43.594,28.677 37.604,31.747 35.11,39.421 38.324,43.645 45.848,42.396 		"/>
		
			<line fill="none" stroke="#FFFFFF" stroke-width="2" stroke-linecap="round" stroke-linejoin="round" stroke-miterlimit="10" x1="27.722" y1="50.27" x2="23.808" y2="43.654"/>
		
			<line fill="none" stroke="#FFFFFF" stroke-width="2" stroke-linecap="round" stroke-linejoin="round" stroke-miterlimit="10" x1="34.463" y1="50.327" x2="38.398" y2="43.719"/>
		<path fill="none" stroke="#FFFFFF" stroke-width="2" stroke-miterlimit="10" d="M47.349,39.449
			c-2.426,6.634-8.794,11.368-16.268,11.368c-9.564,0-17.317-7.754-17.317-17.316c0-9.565,7.753-17.318,17.317-17.318
			c9.563,0,17.316,7.753,17.316,17.318c0,0.711-0.042,1.412-0.125,2.101"/>
	</g>
	<polygon fill="none" stroke="#FFFFFF" stroke-width="2" stroke-miterlimit="10" points="59.788,35.602 54.553,35.602 
		55.895,30.368 52.047,30.368 50.707,35.602 45.471,35.602 44.486,39.449 49.721,39.449 48.38,44.684 52.227,44.684 53.567,39.449 
		58.802,39.449 	"/>
</g>
</svg>
